<?xml version="1.0" encoding="UTF-8" standalone="no"?>
<svg
   xmlns:sketch="http://www.bohemiancoding.com/sketch/ns"
   xmlns:dc="http://purl.org/dc/elements/1.1/"
   xmlns:cc="http://creativecommons.org/ns#"
   xmlns:rdf="http://www.w3.org/1999/02/22-rdf-syntax-ns#"
   xmlns:svg="http://www.w3.org/2000/svg"
   xmlns="http://www.w3.org/2000/svg"
   xmlns:sodipodi="http://sodipodi.sourceforge.net/DTD/sodipodi-0.dtd"
   xmlns:inkscape="http://www.inkscape.org/namespaces/inkscape"
   viewBox="0 0 88.830498 107.69371"
   version="1.1"
   x="0px"
   y="0px"
   id="svg2"
   inkscape:version="0.48.4 r9939"
   width="100%"
   height="100%"
   sodipodi:docname="logo_lucidoc.svg">
  <metadata
     id="metadata16">
    <rdf:RDF>
      <cc:Work
         rdf:about="">
        <dc:format>image/svg+xml</dc:format>
        <dc:type
           rdf:resource="http://purl.org/dc/dcmitype/StillImage" />
      </cc:Work>
    </rdf:RDF>
  </metadata>
  <defs
     id="defs14" />
  <sodipodi:namedview
     pagecolor="#ffffff"
     bordercolor="#666666"
     borderopacity="1"
     objecttolerance="10"
     gridtolerance="10"
     guidetolerance="10"
     inkscape:pageopacity="0"
     inkscape:pageshadow="2"
     inkscape:window-width="1955"
     inkscape:window-height="991"
     id="namedview12"
     showgrid="false"
     fit-margin-top="0"
     fit-margin-left="0"
     fit-margin-right="0"
     fit-margin-bottom="0"
     inkscape:zoom="1.668772"
     inkscape:cx="26.106075"
     inkscape:cy="112.13737"
     inkscape:window-x="0"
     inkscape:window-y="0"
     inkscape:window-maximized="0"
     inkscape:current-layer="svg2" />
  <title
     id="title4">eye</title>
  <desc
     id="desc6">Created with Sketch.</desc>
  <g
     id="g3802"
     transform="matrix(0.63557674,0,0,0.63557674,12.584104,21.868045)">
    <g
       transform="translate(-13,37.58471)"
       style="fill:none;stroke:none"
       id="g8"
       sketch:type="MSPage">
      <path
         style="fill:#000000"
         inkscape:connector-curvature="0"
         id="path10"
         sketch:type="MSShapeGroup"
         d="M 86.6505,48.248 C 86.4845,48.051 82.4985,43.377 76.0365,38.655 67.3905,32.339 58.4095,29 50.0645,29 c -8.345,0 -17.326,3.339 -25.972,9.655 -6.461,4.722 -10.448,9.396 -10.614,9.593 -0.638,0.754 -0.638,1.859 0,2.613 0.166,0.197 4.153,4.871 10.614,9.592 8.646,6.317 17.627,9.656 25.972,9.656 8.345,0 17.326,-3.339 25.972,-9.656 6.462,-4.721 10.448,-9.395 10.614,-9.592 0.638,-0.754 0.638,-1.859 0,-2.613 l 0,0 z m -60.094,8.998 c -4.112,-2.994 -7.205,-6.023 -8.795,-7.69 2.685,-2.812 9.667,-9.498 18.694,-13.446 -3.418,3.459 -5.533,8.209 -5.533,13.444 0,5.227 2.108,9.969 5.515,13.426 -3.836,-1.675 -7.214,-3.792 -9.881,-5.734 l 0,0 z m 23.508,7.407 c -8.325,0 -15.098,-6.773 -15.098,-15.099 0,-8.325 6.773,-15.098 15.098,-15.098 8.325,0 15.098,6.773 15.098,15.098 0,8.326 -6.773,15.099 -15.098,15.099 l 0,0 z m 23.508,-7.407 c -2.666,1.942 -6.045,4.059 -9.881,5.734 3.407,-3.457 5.515,-8.199 5.515,-13.426 0,-5.226 -2.108,-9.968 -5.515,-13.425 3.836,1.675 7.215,3.792 9.881,5.734 4.112,2.995 7.206,6.023 8.796,7.691 -1.59,1.669 -4.684,4.697 -8.796,7.692 l 0,0 z m -18.79,-10.311 c -2.02,0 -3.657,-1.638 -3.657,-3.657 0,-1.145 0.526,-2.165 1.349,-2.836 -0.771,-0.203 -1.576,-0.322 -2.41,-0.322 -5.21,0 -9.434,4.224 -9.434,9.434 0,5.211 4.224,9.435 9.434,9.435 5.211,0 9.435,-4.224 9.435,-9.435 0,-1.774 -0.499,-3.428 -1.351,-4.846 -0.557,1.309 -1.854,2.227 -3.366,2.227 l 0,0 z" />
    </g>
    <path
       inkscape:connector-curvature="0"
       id="path3008"
       d="m 35.734773,102.15301 c -3.596865,-0.37971 -6.64037,-1.78441 -9.15583,-4.225797 -2.237895,-2.171993 -3.749626,-4.970027 -4.321908,-7.999336 -0.229433,-1.214479 -0.308779,-3.041444 -0.185508,-4.271401 0.882062,-8.800972 9.185373,-14.991771 17.847568,-13.306825 3.669478,0.713776 6.918428,2.755546 9.205053,5.784821 3.559949,4.716151 3.986636,11.186524 1.078848,16.359891 -0.720586,1.282025 -1.554672,2.353322 -2.698532,3.465987 -2.45108,2.38424 -5.526862,3.817 -8.962488,4.17492 -0.470805,0.049 -2.395396,0.0612 -2.807203,0.0177 l 0,0 z m 2.6886,-5.658449 c 2.715306,-0.424053 5.02495,-1.881438 6.503231,-4.103536 1.05018,-1.578594 1.570301,-3.312618 1.572899,-5.243869 0.0022,-1.609194 -0.286586,-2.826434 -1.023037,-4.312654 -0.306297,-0.618133 -0.329171,-0.631151 -0.502859,-0.286199 -0.43056,0.855108 -1.328084,1.570006 -2.273792,1.811126 -0.897003,0.228701 -1.664163,0.147507 -2.515889,-0.266275 -0.938772,-0.45607 -1.696239,-1.398252 -1.930691,-2.401506 -0.280991,-1.202398 0.09731,-2.504799 0.985569,-3.393055 0.147352,-0.147351 0.258997,-0.276827 0.248101,-0.287723 -0.0109,-0.0109 -0.257756,-0.06818 -0.548577,-0.127292 -2.664555,-0.541615 -5.4103,0.07889 -7.573258,1.711468 -3.050009,2.302112 -4.390793,6.1768 -3.44047,9.942501 0.814733,3.22842 3.454758,5.893508 6.66296,6.726215 1.200338,0.311554 2.72955,0.403566 3.835813,0.230799 l 0,0 z"
       style="color:#000000;fill:#55ddff;fill-opacity:1;fill-rule:nonzero;stroke:none;stroke-width:4;marker:none;visibility:visible;display:inline;overflow:visible;enable-background:accumulate" />
  </g>
  <g
     id="g3012"
     transform="translate(4.5270882,-973.75727)">
    <path
       id="path3014"
       overflow="visible"
       display="inline"
       visibility="visible"
       d="m 85.005078,969.86219 c -14.95109,0.0974 -32.74128,5.49301 -46.14432,14.61008 -6.70152,4.55853 -12.316675,10.05476 -15.828031,16.41683 -3.420839,6.1981 -4.776186,13.2555 -3.084597,20.6847 -2.377661,3.7394 -4.236755,8.1551 -6.948132,11.7441 4.510975,-2.977 6.484354,-6.1775 8.973372,-9.9996 12.951368,-0.4033 29.876788,-9.3001 38.853458,-15.5135 13.74142,-9.67183 25.74918,-22.50441 26.17234,-35.88661 0.0332,-1.06444 -0.92892,-2.05641 -1.99409,-2.056 z m -2.30566,4.20546 c -1.38503,8.87018 -9.00862,18.45847 -18.88147,26.47885 -5.266,0.243 -9.30166,0.7227 -13.92742,0.1869 4.93909,2.1163 6.92805,2.2498 10.46894,2.4921 -14.1109,9.9188 -23.20561,13.8603 -35.831179,16.1988 7.943729,-12.1057 16.279809,-23.04057 42.311939,-33.95518 -23.41707,7.52547 -34.18426,15.10568 -43.527083,30.27928 -0.140974,-4.5665 0.974965,-8.8797 3.209227,-12.9279 3.10941,-5.6338 8.262286,-10.74753 14.581726,-15.04617 3.96659,-2.69816 8.36961,-5.05168 12.9927,-7.0091 -0.0516,1.36166 0.15088,3.00674 0.56084,5.14001 0.71984,-2.61073 1.68851,-4.68213 2.58607,-6.38607 8.4422,-3.19245 17.39108,-5.09911 25.45571,-5.45152 z"
       style="color:#000000;fill:#000000;stroke:none;marker:none;visibility:visible;display:inline;overflow:visible;enable-background:accumulate"
       inkscape:connector-curvature="0"
       sodipodi:nodetypes="csscccccccccccccsscccc" />
  </g>
  <g
     transform="translate(0.93163047,-969.56257)"
     id="g3798">
    <path
       inkscape:connector-curvature="0"
       style="color:#000000;fill:#000000;stroke:none;marker:none;visibility:visible;display:inline;overflow:visible;enable-background:accumulate"
       d="m 38.299928,1026.3711 c -4.82414,0.1458 -11.559519,1.7756 -22.308806,6.2615 39.199676,-10.9654 27.439776,8.9629 57.828396,-0.3115 -23.25056,3.0836 -23.19126,-6.3227 -35.51959,-5.95 z"
       visibility="visible"
       display="inline"
       overflow="visible"
       id="path3800"
       sodipodi:nodetypes="sccs" />
  </g>
</svg>
